<svg xmlns="http://www.w3.org/2000/svg" width="64" height="64" viewBox="0 0 64 64" fill="none">
  <!-- Seedling emoji style -->
  <!-- Stem -->
  <path d="M32 58 C32 58 32 36 32 32" stroke="#6B8E23" stroke-width="3.5" stroke-linecap="round"/>
  <!-- Left leaf -->
  <path d="M32 38 C24 36 16 28 18 18 C18 18 28 16 36 24 C40 28 38 36 32 38Z" fill="#4CAF50"/>
  <path d="M32 38 C26 34 22 26 24 20" stroke="#81C784" stroke-width="1.5" stroke-linecap="round" fill="none"/>
  <!-- Right small leaf -->
  <path d="M32 46 C38 44 44 38 42 32 C42 32 36 30 30 36 C28 40 30 44 32 46Z" fill="#66BB6A"/>
  <path d="M32 46 C36 42 40 36 38 34" stroke="#A5D6A7" stroke-width="1.2" stroke-linecap="round" fill="none"/>
  <!-- Ground -->
  <ellipse cx="32" cy="58" rx="12" ry="3" fill="#8D6E63" opacity="0.3"/>
</svg>
