<svg xmlns="http://www.w3.org/2000/svg" width="120" height="120" viewBox="0 0 120 120">
  <!-- Body -->
  <path d="M16,68 Q24,40 60,36 Q92,32 102,52 Q108,68 96,76 Q104,84 100,92 Q92,88 84,82 Q60,90 36,84 Q22,82 16,68 Z" fill="#7cc5e8"/>
  <!-- Dorsal fin -->
  <path d="M52,38 Q56,18 70,30 Z" fill="#5aa8cc"/>
  <!-- Belly -->
  <path d="M20,68 Q30,80 60,82 Q80,82 92,76 Q70,86 40,82 Q26,78 20,68 Z" fill="#dff0fa"/>
  <!-- Eye -->
  <circle cx="74" cy="56" r="5" fill="#ffffff"/>
  <circle cx="75" cy="57" r="2.6" fill="#1a1a2e"/>
  <circle cx="76" cy="56" r="0.9" fill="#ffffff"/>
  <!-- Smile -->
  <path d="M86,64 Q92,68 96,64" stroke="#3a6080" stroke-width="2" fill="none" stroke-linecap="round"/>
  <!-- Water droplet over head -->
  <circle cx="40" cy="22" r="3" fill="#a8d6ec" opacity="0.7"/>
  <circle cx="48" cy="14" r="2" fill="#a8d6ec" opacity="0.55"/>
</svg>
