<svg xmlns="http://www.w3.org/2000/svg" width="120" height="120" viewBox="0 0 120 120">
  <!-- Ears -->
  <polygon points="28,38 18,18 42,30" fill="#ff8844"/>
  <polygon points="92,38 102,18 78,30" fill="#ff8844"/>
  <polygon points="28,38 24,24 38,30" fill="#5a3018"/>
  <polygon points="92,38 96,24 82,30" fill="#5a3018"/>
  <!-- Face -->
  <ellipse cx="60" cy="64" rx="40" ry="36" fill="#ff8844"/>
  <!-- Cheek/chest -->
  <path d="M30,70 Q60,108 90,70 Q60,84 30,70 Z" fill="#ffffff"/>
  <!-- Eyes -->
  <ellipse cx="46" cy="58" rx="5" ry="6" fill="#3a2010"/>
  <ellipse cx="74" cy="58" rx="5" ry="6" fill="#3a2010"/>
  <circle cx="48" cy="56" r="1.6" fill="#ffffff"/>
  <circle cx="76" cy="56" r="1.6" fill="#ffffff"/>
  <!-- Nose -->
  <ellipse cx="60" cy="74" rx="5" ry="3.5" fill="#3a2010"/>
  <!-- Mouth -->
  <path d="M60,78 Q56,84 52,82 M60,78 Q64,84 68,82" stroke="#3a2010" stroke-width="2" fill="none" stroke-linecap="round"/>
</svg>
