<svg xmlns="http://www.w3.org/2000/svg" width="120" height="120" viewBox="0 0 120 120">
  <!-- Mane (spiky) -->
  <g fill="#c87a18">
    <circle cx="20" cy="60" r="14"/>
    <circle cx="100" cy="60" r="14"/>
    <circle cx="30" cy="28" r="12"/>
    <circle cx="60" cy="20" r="12"/>
    <circle cx="90" cy="28" r="12"/>
    <circle cx="30" cy="92" r="12"/>
    <circle cx="90" cy="92" r="12"/>
    <circle cx="60" cy="104" r="12"/>
  </g>
  <!-- Inner mane glow -->
  <circle cx="60" cy="60" r="40" fill="#e09430"/>
  <!-- Face -->
  <circle cx="60" cy="60" r="32" fill="#ffc844"/>
  <!-- Snout patch -->
  <ellipse cx="60" cy="72" rx="18" ry="14" fill="#fff0c8"/>
  <!-- Eyes -->
  <ellipse cx="48" cy="56" rx="3.5" ry="5" fill="#3a2010"/>
  <ellipse cx="72" cy="56" rx="3.5" ry="5" fill="#3a2010"/>
  <circle cx="49" cy="55" r="1.4" fill="#ffffff"/>
  <circle cx="73" cy="55" r="1.4" fill="#ffffff"/>
  <!-- Nose -->
  <path d="M55,66 L65,66 L60,72 Z" fill="#3a2010"/>
  <!-- Mouth -->
  <path d="M60,72 L60,76 M60,76 Q55,80 52,78 M60,76 Q65,80 68,78" stroke="#3a2010" stroke-width="2" fill="none" stroke-linecap="round"/>
</svg>
