<svg xmlns="http://www.w3.org/2000/svg" width="120" height="120" viewBox="0 0 120 120">
  <!-- Ears -->
  <circle cx="26" cy="30" r="14" fill="#222222"/>
  <circle cx="94" cy="30" r="14" fill="#222222"/>
  <!-- Face -->
  <ellipse cx="60" cy="62" rx="42" ry="38" fill="#ffffff"/>
  <!-- Cheek tufts -->
  <ellipse cx="22" cy="68" rx="6" ry="4" fill="#f5e8d8" opacity="0.8"/>
  <ellipse cx="98" cy="68" rx="6" ry="4" fill="#f5e8d8" opacity="0.8"/>
  <!-- Eye patches -->
  <ellipse cx="44" cy="56" rx="9" ry="11" fill="#222222" transform="rotate(-12 44 56)"/>
  <ellipse cx="76" cy="56" rx="9" ry="11" fill="#222222" transform="rotate(12 76 56)"/>
  <!-- Eyes -->
  <circle cx="46" cy="58" r="4" fill="#ffffff"/>
  <circle cx="74" cy="58" r="4" fill="#ffffff"/>
  <circle cx="46" cy="58" r="2.2" fill="#1a1a1a"/>
  <circle cx="74" cy="58" r="2.2" fill="#1a1a1a"/>
  <circle cx="47" cy="57" r="0.9" fill="#ffffff"/>
  <circle cx="75" cy="57" r="0.9" fill="#ffffff"/>
  <!-- Nose -->
  <ellipse cx="60" cy="74" rx="5" ry="3.5" fill="#222222"/>
  <!-- Mouth -->
  <path d="M60,78 L60,82 M60,82 Q55,86 52,84 M60,82 Q65,86 68,84" stroke="#222222" stroke-width="2" fill="none" stroke-linecap="round"/>
</svg>
